<?xml version="1.0" standalone="no"?>
<!DOCTYPE svg PUBLIC "-//W3C//DTD SVG 20010904//EN"
 "http://www.w3.org/TR/2001/REC-SVG-20010904/DTD/svg10.dtd">
<svg version="1.0" xmlns="http://www.w3.org/2000/svg"
 width="512.000000pt" height="512.000000pt" viewBox="0 0 512.000000 512.000000"
 preserveAspectRatio="xMidYMid meet">
<metadata>
Created by potrace 1.11, written by Peter Selinger 2001-2013
</metadata>
<g transform="translate(0.000000,512.000000) scale(0.100000,-0.100000)"
fill="#000000" stroke="none">
<path d="M0 4855 l0 -266 31 -62 c17 -34 35 -63 40 -65 5 -2 9 -12 9 -22 0
-10 18 -57 40 -106 22 -48 54 -124 69 -168 34 -94 52 -138 91 -221 85 -181
114 -247 137 -310 14 -38 36 -89 48 -111 13 -23 35 -74 50 -115 14 -40 30 -78
34 -84 5 -5 11 -23 15 -40 6 -23 5 -27 -4 -18 -21 20 -101 176 -125 244 -7 20
-25 56 -40 79 -29 45 -98 190 -110 229 -4 14 -67 146 -140 295 -72 149 -134
278 -138 286 -3 8 -6 -978 -6 -2192 l-1 -2208 1006 0 c954 0 1006 1 999 18 -4
9 -11 32 -15 50 -5 19 -15 41 -23 50 -8 9 -18 28 -22 42 -4 14 -11 27 -14 30
-8 6 -41 82 -76 174 -15 38 -40 95 -56 126 -32 63 -41 111 -14 76 8 -11 24
-45 36 -75 11 -31 42 -99 69 -151 27 -53 55 -113 63 -135 31 -84 52 -130 65
-144 8 -8 18 -25 23 -38 l9 -23 1535 0 1535 0 0 2560 0 2560 -2560 0 -2560 0
0 -265z m4335 -95 c3 -5 -1 -10 -10 -10 -9 0 -13 5 -10 10 3 6 8 10 10 10 2 0
7 -4 10 -10z m-283 -172 c-9 -9 -15 -9 -24 0 -9 9 -7 12 12 12 19 0 21 -3 12
-12z m-481 -389 c18 -18 31 -20 112 -18 51 1 113 8 138 16 46 13 47 13 79 -17
18 -16 36 -28 40 -25 5 3 10 0 12 -7 5 -13 24 -18 93 -23 69 -5 129 -29 133
-52 5 -29 173 -141 215 -143 9 0 17 -7 17 -16 0 -10 6 -14 15 -10 9 3 15 0 15
-10 0 -15 98 -124 111 -124 12 0 99 -93 99 -106 0 -6 9 -19 19 -28 11 -10 25
-32 31 -49 7 -18 16 -41 20 -52 5 -11 11 -32 14 -47 3 -15 12 -33 20 -40 23
-24 47 -78 42 -96 -3 -9 -7 -55 -8 -102 -1 -46 -7 -100 -14 -120 -7 -21 -9
-39 -3 -46 5 -6 7 -13 4 -16 -3 -2 -7 -56 -9 -118 -4 -98 -8 -117 -24 -130
-14 -10 -21 -32 -24 -68 -3 -29 -12 -60 -22 -70 -9 -10 -13 -22 -9 -25 3 -4 1
-7 -5 -7 -6 0 -21 -19 -33 -42 -12 -24 -28 -47 -36 -53 -7 -5 -21 -25 -31 -44
-11 -23 -25 -36 -42 -38 -48 -6 -85 -83 -40 -83 29 0 14 -28 -20 -35 -18 -4
-30 -14 -34 -30 -3 -13 -24 -38 -46 -55 l-41 -33 -24 23 c-18 17 -27 19 -42
12 -20 -11 -63 -58 -63 -70 0 -9 -59 -62 -70 -62 -4 0 -11 7 -14 16 -4 11 -13
14 -30 10 -14 -3 -27 -2 -31 3 -3 6 -23 2 -49 -9 -24 -10 -46 -16 -49 -14 -2
3 -26 0 -53 -7 -38 -9 -59 -22 -96 -61 -27 -28 -48 -47 -48 -41 0 5 -16 9 -36
10 -20 0 -39 5 -43 10 -3 5 -19 10 -36 11 -43 3 -158 32 -172 44 -7 5 -22 7
-33 3 -16 -5 -29 0 -48 18 -16 14 -56 32 -94 42 -38 10 -68 21 -68 26 0 4 -26
17 -57 29 -32 12 -75 32 -96 46 -21 14 -77 39 -125 56 -113 39 -146 57 -227
119 -89 68 -161 99 -254 108 -63 6 -84 4 -120 -12 -28 -11 -55 -15 -73 -11
-21 4 -33 1 -41 -10 -7 -9 -30 -18 -52 -20 -22 -2 -57 -7 -77 -11 -77 -15 -63
11 61 112 49 40 76 55 212 117 49 22 107 72 110 94 0 4 3 16 6 27 8 31 9 176
1 215 -7 33 1 81 28 169 8 25 14 60 14 79 0 44 49 131 107 188 35 36 42 49 37
69 -9 36 31 88 63 82 17 -3 32 4 54 25 16 16 29 36 29 43 0 7 5 15 11 17 6 2
17 18 25 36 7 18 9 30 4 27 -6 -3 -10 -2 -10 2 0 18 31 51 99 108 38 32 68 62
65 66 -3 5 5 22 17 39 23 30 59 37 87 17 8 -7 18 -5 30 5 9 9 31 19 47 22 17
4 39 15 50 25 26 23 129 64 133 53 1 -4 18 -6 37 -4 25 3 35 9 35 22 0 16 42
70 55 70 3 0 14 -9 26 -21z m-2901 -1155 c33 -74 34 -78 19 -69 -10 7 -59 110
-59 126 0 22 12 4 40 -57z m876 -635 c8 -7 50 -14 93 -17 63 -4 89 0 135 17
97 36 186 22 99 -15 -21 -9 -45 -20 -53 -25 -8 -5 -30 -15 -47 -23 -20 -9 -33
-22 -33 -33 0 -11 -5 -24 -11 -30 -6 -6 -14 -26 -19 -46 -6 -27 -3 -42 11 -64
10 -15 17 -35 14 -43 -3 -9 4 -33 15 -55 14 -28 20 -59 20 -108 0 -64 -3 -73
-37 -121 -20 -28 -41 -55 -48 -61 -6 -5 -24 -27 -39 -48 -16 -20 -40 -40 -53
-43 -14 -4 -22 -12 -19 -20 6 -15 -15 -34 -41 -39 -10 -1 -17 -8 -15 -14 1 -6
-5 -11 -13 -11 -9 0 -18 -6 -21 -14 -3 -8 -13 -13 -22 -12 -9 2 -25 -5 -36
-16 -18 -16 -37 -22 -52 -15 -10 4 -25 -33 -19 -46 3 -6 -2 -2 -11 11 -9 12
-21 22 -26 22 -13 0 -38 -26 -31 -33 8 -9 -59 -24 -85 -19 -16 3 -21 9 -17 19
4 11 1 13 -12 8 -10 -4 -53 -9 -97 -11 -43 -2 -83 -8 -90 -13 -12 -9 -45 -9
-62 1 -5 4 -28 9 -50 11 -54 6 -134 44 -134 63 0 8 -7 17 -15 20 -8 4 -15 12
-15 19 0 7 -7 15 -15 19 -12 4 -15 24 -15 86 0 74 3 84 33 130 17 28 51 74 75
102 23 29 42 55 42 59 0 4 37 36 83 72 103 81 132 111 121 129 -6 10 -5 11 7
1 13 -10 21 -6 50 23 19 19 58 49 87 65 28 17 52 37 52 45 0 7 12 17 28 20 15
4 43 20 62 35 19 15 44 30 55 33 33 8 156 -2 171 -15z m200 -1765 c8 -20 13
-39 10 -42 -5 -4 -36 58 -36 73 0 16 13 0 26 -31z"/>
</g>
</svg>
